<!DOCTYPE svg PUBLIC "-//W3C//DTD SVG 1.1//EN" "http://www.w3.org/Graphics/SVG/1.1/DTD/svg11.dtd">
<!-- Uploaded to: SVG Repo, www.svgrepo.com, Transformed by: SVG Repo Mixer Tools -->
<svg fill="#ffffff" height="800px" width="800px" version="1.1" id="Layer_1" xmlns="http://www.w3.org/2000/svg" xmlns:xlink="http://www.w3.org/1999/xlink" viewBox="0 0 511.999 511.999" xml:space="preserve">
<g id="SVGRepo_bgCarrier" stroke-width="0"/>
<g id="SVGRepo_tracerCarrier" stroke-linecap="round" stroke-linejoin="round"/>
<g id="SVGRepo_iconCarrier"> <g> <g> <path d="M377.42,0H134.578c-32.135,0-58.279,26.144-58.279,58.279v395.44c0,32.135,26.144,58.279,58.279,58.279H377.42 c32.136,0,58.281-26.144,58.281-58.279V58.279C435.7,26.144,409.556,0,377.42,0z M414.805,453.719 c0,20.613-16.771,37.384-37.385,37.384H134.578c-20.613,0-37.384-16.771-37.384-37.384V58.279 c0-20.613,16.771-37.384,37.384-37.384H377.42c20.614,0,37.385,16.771,37.385,37.384V453.719z"/> </g> </g> <g> <g> <path d="M384.941,57.815H127.928c-5.77,0-10.448,4.677-10.448,10.448v165.074c0,5.77,4.677,10.448,10.448,10.448h257.013 c5.77,0,10.448-4.677,10.448-10.448V68.262C395.389,62.492,390.711,57.815,384.941,57.815z M374.493,177.962h-92.465 c-5.77,0-10.448,4.677-10.448,10.448s4.677,10.448,10.448,10.448h92.465v24.031H138.376v-99.252h91.816 c5.77,0,10.448-4.677,10.448-10.448s-4.677-10.448-10.448-10.448h-91.816V78.71h236.117V177.962z"/> </g> </g> <g> <g> <path d="M264.28,102.74l-0.244-0.001c-0.016,0-0.029,0-0.045,0c-5.749,0-10.423,4.649-10.447,10.404 c-0.024,5.77,4.635,10.468,10.404,10.492l0.244,0.001c0.016,0,0.029,0,0.045,0c5.749,0,10.423-4.648,10.447-10.404 C274.708,107.461,270.05,102.764,264.28,102.74z"/> </g> </g> <g> <g> <path d="M248.271,177.963l-0.244-0.001c-0.016,0-0.029,0-0.045,0c-5.749,0-10.423,4.649-10.447,10.404 c-0.024,5.77,4.635,10.468,10.404,10.492l0.245,0.001c0.016,0,0.029,0,0.045,0c5.749,0,10.423-4.649,10.447-10.404 C258.699,182.685,254.042,177.987,248.271,177.963z"/> </g> </g> <g> <g> <path d="M302.649,356.798c-17.502,0-31.742,14.239-31.742,31.741c0,17.503,14.239,31.743,31.742,31.743 c17.502,0,31.741-14.24,31.741-31.743C334.39,371.037,320.151,356.798,302.649,356.798z M302.649,399.387 c-5.981,0-10.847-4.867-10.847-10.848c0-5.98,4.865-10.846,10.847-10.846c5.98,0,10.846,4.866,10.846,10.846 C313.494,394.521,308.629,399.387,302.649,399.387z"/> </g> </g> <g> <g> <path d="M384.216,360.342h-35.498c-5.77,0-10.448,4.677-10.448,10.448v35.5c0,5.77,4.677,10.448,10.448,10.448h35.498 c5.77,0,10.448-4.677,10.448-10.448v-35.5C394.664,365.019,389.986,360.342,384.216,360.342z M373.768,395.842h-14.603v-14.605 h14.603V395.842z"/> </g> </g> <g> <g> <path d="M377.836,338.466l-32.913-57.007c-1.866-3.232-5.315-5.224-9.048-5.224s-7.182,1.991-9.048,5.224l-33.225,57.547 c-1.867,3.232-1.867,7.215,0,10.448c1.865,3.234,5.314,5.224,9.047,5.224h66.451c0.007,0,0.014,0,0.021,0 c5.77,0,10.448-4.677,10.448-10.448C379.568,342.1,378.93,340.118,377.836,338.466z M320.744,333.783l15.128-26.204l15.129,26.204 H320.744z"/> </g> </g> <g> <g> <path d="M239.041,322.19h-24.126v-24.125c0-5.77-4.677-10.448-10.448-10.448h-42.836c-5.77,0-10.448,4.677-10.448,10.448v24.125 h-24.116c-5.77,0-10.448,4.677-10.448,10.448v42.837c0,5.77,4.677,10.448,10.448,10.448h24.116v24.115 c0,5.77,4.677,10.448,10.448,10.448h42.836c5.77,0,10.448-4.677,10.448-10.448v-24.115h24.126c5.77,0,10.448-4.677,10.448-10.448 v-42.837C249.488,326.867,244.811,322.19,239.041,322.19z M228.593,365.027h-24.126c-5.77,0-10.448,4.677-10.448,10.448v24.115 h-21.94v-24.115c0-5.77-4.677-10.448-10.448-10.448h-24.116v-21.941h24.117c5.77,0,10.448-4.677,10.448-10.448v-24.125h21.94 v24.125c0,5.77,4.677,10.448,10.448,10.448h24.126V365.027z"/> </g> </g> </g>
</svg>