<?xml version="1.0" standalone="no"?>
<!DOCTYPE svg PUBLIC "-//W3C//DTD SVG 20010904//EN"
 "http://www.w3.org/TR/2001/REC-SVG-20010904/DTD/svg10.dtd">
<svg version="1.0" xmlns="http://www.w3.org/2000/svg"
 width="1875.000000pt" height="1879.000000pt" viewBox="0 0 1875.000000 1879.000000"
 preserveAspectRatio="xMidYMid meet">

<g transform="translate(0.000000,1879.000000) scale(0.100000,-0.100000)"
fill="#ffffff" stroke="none">
<path d="M1267 12853 c-697 -3266 -1267 -5941 -1267 -5945 0 -5 720 -8 1600
-8 l1600 0 5 23 c5 21 900 4212 912 4270 l6 28 1201 -4 c1292 -3 1264 -2 1490
-56 466 -112 769 -378 911 -805 119 -354 131 -735 59 -1856 -34 -535 -42
-1015 -20 -1210 31 -272 93 -511 160 -623 14 -23 545 -584 1180 -1246 l1154
-1205 -17 -35 c-106 -210 -1961 -4174 -1957 -4179 4 -3 15 -2 24 4 107 66
4212 2474 4217 2474 3 0 718 -540 1587 -1201 869 -660 1581 -1199 1583 -1197
1 2 -130 895 -292 1986 -162 1091 -292 1989 -290 1996 3 7 813 571 1801 1255
988 683 1806 1251 1818 1261 23 19 -14 19 -1998 20 l-2022 0 -11 63 c-6 34
-150 930 -321 1991 -170 1061 -313 1932 -316 1935 -3 3 -8 0 -12 -6 -4 -6
-538 -898 -1187 -1982 l-1180 -1971 -217 0 -218 0 -64 133 c-135 278 -231 622
-282 1007 -27 202 -28 632 -5 1345 38 1185 38 1499 -4 1823 -100 763 -450
1205 -1102 1394 -62 17 -113 37 -113 43 0 7 53 21 133 34 891 147 1587 530
2037 1121 341 448 540 993 617 1690 24 217 24 764 0 977 -114 1020 -510 1677
-1263 2097 -427 238 -1024 398 -1719 460 -377 34 -540 36 -3745 36 l-3205 0
-1268 -5937z m6833 3433 c173 -26 304 -54 418 -92 474 -155 736 -450 803 -904
18 -125 7 -448 -20 -584 -136 -678 -610 -1072 -1446 -1201 -282 -43 -363 -45
-1807 -45 -1175 0 -1378 2 -1378 14 0 14 586 2786 596 2819 5 17 66 18 1362
14 1225 -3 1368 -5 1472 -21z m5865 -8826 c124 -773 227 -1415 230 -1427 l5
-23 1329 -2 1328 -3 -1199 -829 -1198 -830 5 -30 c15 -86 425 -2869 423 -2872
-2 -1 -463 347 -1024 774 -562 428 -1083 824 -1157 880 l-136 104 -1467 -861
c-807 -474 -1468 -860 -1469 -859 -1 2 299 642 666 1422 368 781 669 1423 669
1427 0 4 -367 389 -815 856 l-814 848 1347 5 1346 5 851 1421 c467 782 851
1417 853 1410 1 -6 103 -643 227 -1416z"/>
</g>
</svg>
