<?xml version="1.0" standalone="no"?>
<!DOCTYPE svg PUBLIC "-//W3C//DTD SVG 20010904//EN"
 "http://www.w3.org/TR/2001/REC-SVG-20010904/DTD/svg10.dtd">
<svg version="1.0" xmlns="http://www.w3.org/2000/svg"
 width="1080.000000pt" height="1080.000000pt" viewBox="0 0 1080.000000 1080.000000"
 preserveAspectRatio="xMidYMid meet">

<g transform="translate(0.000000,1080.000000) scale(0.100000,-0.100000)"
fill="#ffffff" stroke="none">
<path d="M5376 10744 c-14 -14 -16 -101 -16 -815 0 -439 2 -799 4 -799 3 0 18
12 33 26 l28 26 3 -1898 2 -1897 85 -88 85 -88 0 -1671 c0 -918 3 -1670 8
-1670 4 0 61 54 127 120 66 66 123 120 127 120 5 0 8 -359 8 -797 l0 -797 45
44 45 44 0 805 0 805 -38 -37 c-21 -20 -41 -37 -45 -37 -4 0 -7 628 -7 1395 0
767 3 1395 7 1395 4 0 27 -19 51 -42 l44 -43 -6 2685 -7 2685 -42 43 -42 43
-5 -2676 -5 -2676 -132 133 -133 133 0 2064 c0 1136 -1 2066 -3 2067 -1 2 -35
-28 -74 -67 -39 -38 -74 -69 -77 -69 -3 0 -6 340 -6 756 0 501 -3 762 -10 775
-13 23 -33 24 -54 3z"/>
<path d="M4886 10253 l-46 -46 0 -799 c0 -439 2 -798 5 -798 2 0 20 16 39 35
20 19 40 35 46 35 7 0 10 -444 10 -1402 l0 -1402 -43 42 c-23 23 -46 42 -50
42 -4 0 -7 -1204 -7 -2675 l0 -2676 45 -47 c25 -26 45 -42 45 -37 0 6 0 1208
0 2673 0 2025 3 2662 12 2662 6 0 65 -53 130 -117 65 -65 122 -119 126 -121 4
-1 6 748 4 1665 -1 916 -4 1664 -7 1662 -2 -2 -59 -58 -126 -124 -116 -114
-122 -119 -131 -96 -4 13 -7 368 -6 797 2 426 2 774 1 774 0 0 -22 -21 -47
-47z"/>
<path d="M4393 9759 l-63 -60 0 -4292 0 -4293 65 -64 65 -64 0 2659 c0 1463 4
2665 8 2672 5 8 50 -30 139 -117 71 -72 134 -130 139 -130 5 0 8 514 6 1217
-1 669 -4 1214 -6 1212 -3 -2 -64 -62 -137 -133 -107 -105 -133 -126 -140
-113 -5 9 -8 350 -7 791 2 427 1 776 -2 776 -3 0 -33 -27 -67 -61z"/>
<path d="M6340 7155 c0 -1466 -4 -2665 -8 -2665 -5 0 -67 58 -137 130 -71 71
-133 130 -137 130 -4 0 -8 -547 -8 -1215 0 -668 3 -1215 8 -1215 4 0 63 56
132 125 69 69 130 125 137 125 10 0 13 -160 13 -792 l0 -792 65 64 65 64 0
4296 0 4297 -59 56 c-33 31 -62 57 -65 57 -3 0 -6 -1199 -6 -2665z"/>
<path d="M3898 9267 l-88 -90 0 -806 0 -806 -140 -139 -140 -138 39 -47 c22
-25 85 -91 140 -146 l101 -100 0 -2680 0 -2680 88 -88 c48 -48 91 -87 95 -87
4 0 8 1202 9 2670 l3 2671 90 -87 90 -88 3 333 c1 183 1 478 0 656 l-3 324
-87 -85 c-49 -46 -90 -84 -93 -84 -3 0 -5 358 -5 795 0 437 -3 794 -7 794 -5
-1 -47 -42 -95 -92z"/>
<path d="M6800 6688 l0 -2673 -88 88 c-48 48 -91 87 -95 87 -4 0 -7 -298 -7
-662 l0 -663 88 88 c48 48 91 87 95 87 4 0 7 -355 7 -790 0 -434 3 -790 7
-790 4 0 47 39 95 87 l88 88 0 804 0 804 140 142 c77 77 140 145 140 151 0 5
-63 72 -140 149 l-140 138 0 2681 0 2681 -87 87 c-48 49 -91 88 -95 88 -5 0
-8 -1203 -8 -2672z"/>
<path d="M3370 8736 l-125 -124 -5 -3181 c-3 -1750 -2 -3193 2 -3208 4 -17 59
-79 133 -153 l125 -125 0 3458 c0 1901 -1 3457 -3 3457 -2 0 -59 -56 -127
-124z"/>
<path d="M7300 5403 l0 -3458 135 136 135 136 -2 3196 -3 3197 -125 125 c-69
69 -128 125 -132 125 -5 0 -8 -1556 -8 -3457z"/>
<path d="M2782 8152 l-172 -178 0 -2570 0 -2569 172 -172 c95 -95 176 -173
180 -173 5 0 8 1314 8 2920 0 1606 -3 2920 -7 2920 -5 0 -86 -80 -181 -178z"/>
<path d="M7839 8324 c-2 -5 -2 -1320 1 -2922 l5 -2913 178 179 177 178 0 2564
0 2564 -179 179 c-98 99 -180 176 -182 171z"/>
<path d="M2142 7508 l-232 -231 0 -1871 0 -1871 235 -235 235 -235 0 2338 c0
1285 -1 2337 -3 2337 -2 0 -107 -104 -235 -232z"/>
<path d="M8420 5403 l0 -2338 235 235 235 235 0 1874 0 1875 -227 228 c-125
125 -231 228 -235 228 -5 0 -8 -1052 -8 -2337z"/>
<path d="M1413 6779 l-303 -303 0 -1070 0 -1071 300 -300 c164 -164 302 -297
305 -294 3 3 4 756 3 1673 l-3 1668 -302 -303z"/>
<path d="M9080 5410 c0 -918 3 -1670 7 -1670 3 0 141 134 305 297 l298 298 0
1075 0 1074 -297 298 c-164 164 -301 298 -305 298 -5 0 -8 -751 -8 -1670z"/>
<path d="M492 5861 l-453 -455 453 -453 c249 -249 456 -453 460 -453 5 0 8
410 8 910 0 501 -3 909 -7 909 -5 -1 -212 -207 -461 -458z"/>
<path d="M9840 5410 c0 -500 3 -910 8 -910 4 0 212 205 462 455 l455 455 -455
455 c-250 250 -458 455 -462 455 -5 0 -8 -409 -8 -910z"/>
<path d="M5200 3535 c0 -1136 4 -2065 8 -2065 4 0 37 29 72 65 35 36 68 65 72
65 4 0 8 -341 8 -758 0 -746 0 -759 20 -777 19 -17 21 -17 40 0 20 18 20 31
20 823 l0 805 -23 -21 c-13 -12 -29 -22 -35 -22 -9 0 -12 441 -12 1896 l0
1897 -77 78 c-42 44 -80 79 -85 79 -4 0 -8 -929 -8 -2065z"/>
</g>
</svg>
